<svg id="link" xmlns="http://www.w3.org/2000/svg" width="16" height="16" viewBox="0 0 16 16">
  <rect id="link_Background_" data-name="link (Background)" width="16" height="16" transform="translate(0)" fill="none"/>
  <path id="link-2" data-name="link" d="M3.753,16A3.753,3.753,0,0,1,1.1,9.593L4.285,6.408,5.346,7.47,2.161,10.655A2.252,2.252,0,1,0,5.346,13.84l3.185-3.185,1.062,1.061L6.408,14.9A3.729,3.729,0,0,1,3.753,16Zm2.654-5.345h0L5.346,9.593,9.593,5.346l1.062,1.062L6.409,10.654Zm5.308-1.062h0l-1.06-1.061L13.84,5.346a2.252,2.252,0,1,0-3.185-3.185L7.47,5.346,6.408,4.285,9.593,1.1A3.753,3.753,0,1,1,14.9,6.408L11.717,9.592Z" transform="translate(0 0)" fill="rgba(0,0,0,0.9)"/>
</svg>
